<mxfile host="app.diagrams.net" modified="2022-12-03T00:05:43.728Z" agent="5.0 (Windows NT 10.0; Win64; x64) AppleWebKit/537.36 (KHTML, like Gecko) Chrome/108.0.0.0 Safari/537.36" etag="u-EASEyw3L4uR0fAqkzL" version="20.5.3" type="github">
  <diagram id="TzTWojON5OBYAdXxNTSG" name="Page-1">
    <mxGraphModel dx="1363" dy="592" grid="1" gridSize="10" guides="1" tooltips="1" connect="1" arrows="1" fold="1" page="1" pageScale="1" pageWidth="850" pageHeight="1100" math="0" shadow="0">
      <root>
        <mxCell id="0" />
        <mxCell id="1" parent="0" />
        <mxCell id="gQC99idY5nHxFl9WnmBx-1" value="" style="rounded=0;whiteSpace=wrap;html=1;" vertex="1" parent="1">
          <mxGeometry x="160" y="40" width="520" height="410" as="geometry" />
        </mxCell>
        <mxCell id="gQC99idY5nHxFl9WnmBx-2" value="&lt;font style=&quot;font-size: 18px;&quot;&gt;Equivalent Concentration Calculator&lt;/font&gt;" style="text;html=1;strokeColor=none;fillColor=none;align=center;verticalAlign=middle;whiteSpace=wrap;rounded=0;" vertex="1" parent="1">
          <mxGeometry x="257.5" y="50" width="325" height="30" as="geometry" />
        </mxCell>
        <mxCell id="gQC99idY5nHxFl9WnmBx-3" value="" style="rounded=1;whiteSpace=wrap;html=1;" vertex="1" parent="1">
          <mxGeometry x="540" y="100" width="120" height="40" as="geometry" />
        </mxCell>
        <mxCell id="gQC99idY5nHxFl9WnmBx-4" value="Input number corresponding to toxicity test: 1 = Fish LC50, 2 = Oral Rat LD50, 3 = Inhalation Rat LC50, 4 = Dermal Rabbit LD50:" style="text;html=1;strokeColor=none;fillColor=none;align=center;verticalAlign=middle;whiteSpace=wrap;rounded=0;" vertex="1" parent="1">
          <mxGeometry x="200" y="105" width="340" height="30" as="geometry" />
        </mxCell>
        <mxCell id="gQC99idY5nHxFl9WnmBx-5" value="Concentration (do not include units)" style="text;html=1;strokeColor=none;fillColor=none;align=center;verticalAlign=middle;whiteSpace=wrap;rounded=0;" vertex="1" parent="1">
          <mxGeometry x="255" y="165" width="360" height="30" as="geometry" />
        </mxCell>
        <mxCell id="gQC99idY5nHxFl9WnmBx-6" value="" style="rounded=1;whiteSpace=wrap;html=1;" vertex="1" parent="1">
          <mxGeometry x="540" y="160" width="120" height="40" as="geometry" />
        </mxCell>
        <mxCell id="gQC99idY5nHxFl9WnmBx-7" value="Percent Composition" style="text;html=1;strokeColor=none;fillColor=none;align=center;verticalAlign=middle;whiteSpace=wrap;rounded=0;" vertex="1" parent="1">
          <mxGeometry x="290" y="220" width="360" height="30" as="geometry" />
        </mxCell>
        <mxCell id="gQC99idY5nHxFl9WnmBx-8" value="" style="rounded=1;whiteSpace=wrap;html=1;" vertex="1" parent="1">
          <mxGeometry x="540" y="220" width="120" height="40" as="geometry" />
        </mxCell>
        <mxCell id="gQC99idY5nHxFl9WnmBx-10" value="Calculate" style="rounded=1;whiteSpace=wrap;html=1;fontSize=18;" vertex="1" parent="1">
          <mxGeometry x="360" y="270" width="120" height="40" as="geometry" />
        </mxCell>
        <mxCell id="gQC99idY5nHxFl9WnmBx-16" style="edgeStyle=orthogonalEdgeStyle;rounded=0;orthogonalLoop=1;jettySize=auto;html=1;exitX=1;exitY=0.5;exitDx=0;exitDy=0;entryX=0;entryY=0.5;entryDx=0;entryDy=0;fontSize=12;" edge="1" parent="1" source="gQC99idY5nHxFl9WnmBx-11" target="gQC99idY5nHxFl9WnmBx-15">
          <mxGeometry relative="1" as="geometry" />
        </mxCell>
        <mxCell id="gQC99idY5nHxFl9WnmBx-11" value="&lt;font style=&quot;font-size: 12px;&quot;&gt;convert str to float (t=input)&lt;/font&gt;" style="rounded=0;whiteSpace=wrap;html=1;fontSize=18;" vertex="1" parent="1">
          <mxGeometry x="760" y="90" width="120" height="60" as="geometry" />
        </mxCell>
        <mxCell id="gQC99idY5nHxFl9WnmBx-23" style="edgeStyle=orthogonalEdgeStyle;rounded=0;orthogonalLoop=1;jettySize=auto;html=1;exitX=1;exitY=0.5;exitDx=0;exitDy=0;entryX=0;entryY=0.5;entryDx=0;entryDy=0;fontSize=12;" edge="1" parent="1" source="gQC99idY5nHxFl9WnmBx-12" target="gQC99idY5nHxFl9WnmBx-15">
          <mxGeometry relative="1" as="geometry" />
        </mxCell>
        <mxCell id="gQC99idY5nHxFl9WnmBx-12" value="&lt;font style=&quot;font-size: 12px;&quot;&gt;convert str to float (c=input)&lt;/font&gt;" style="rounded=0;whiteSpace=wrap;html=1;fontSize=18;" vertex="1" parent="1">
          <mxGeometry x="760" y="150" width="120" height="60" as="geometry" />
        </mxCell>
        <mxCell id="gQC99idY5nHxFl9WnmBx-27" style="edgeStyle=orthogonalEdgeStyle;rounded=0;orthogonalLoop=1;jettySize=auto;html=1;exitX=1;exitY=0.5;exitDx=0;exitDy=0;entryX=0.5;entryY=1;entryDx=0;entryDy=0;fontSize=14;" edge="1" parent="1" source="gQC99idY5nHxFl9WnmBx-13" target="gQC99idY5nHxFl9WnmBx-26">
          <mxGeometry relative="1" as="geometry" />
        </mxCell>
        <mxCell id="gQC99idY5nHxFl9WnmBx-13" value="&lt;font style=&quot;font-size: 12px;&quot;&gt;convert str to float (p=input)&lt;/font&gt;" style="rounded=0;whiteSpace=wrap;html=1;fontSize=18;" vertex="1" parent="1">
          <mxGeometry x="760" y="210" width="120" height="60" as="geometry" />
        </mxCell>
        <mxCell id="gQC99idY5nHxFl9WnmBx-22" style="edgeStyle=orthogonalEdgeStyle;rounded=0;orthogonalLoop=1;jettySize=auto;html=1;exitX=0;exitY=1;exitDx=0;exitDy=0;fontSize=12;" edge="1" parent="1" source="gQC99idY5nHxFl9WnmBx-15">
          <mxGeometry relative="1" as="geometry">
            <mxPoint x="930" y="190" as="targetPoint" />
          </mxGeometry>
        </mxCell>
        <mxCell id="gQC99idY5nHxFl9WnmBx-28" style="edgeStyle=orthogonalEdgeStyle;rounded=0;orthogonalLoop=1;jettySize=auto;html=1;exitX=1;exitY=0.5;exitDx=0;exitDy=0;entryX=0;entryY=0.5;entryDx=0;entryDy=0;fontSize=14;" edge="1" parent="1" source="gQC99idY5nHxFl9WnmBx-15" target="gQC99idY5nHxFl9WnmBx-26">
          <mxGeometry relative="1" as="geometry" />
        </mxCell>
        <mxCell id="gQC99idY5nHxFl9WnmBx-15" value="&lt;font style=&quot;font-size: 12px;&quot;&gt;t &amp;amp; c used to determine tcrm&lt;/font&gt;" style="rounded=0;whiteSpace=wrap;html=1;fontSize=18;" vertex="1" parent="1">
          <mxGeometry x="930" y="130" width="120" height="60" as="geometry" />
        </mxCell>
        <mxCell id="gQC99idY5nHxFl9WnmBx-24" value="&lt;font style=&quot;font-size: 14px;&quot;&gt;EC:&lt;/font&gt;" style="text;html=1;strokeColor=none;fillColor=none;align=center;verticalAlign=middle;whiteSpace=wrap;rounded=0;fontSize=12;" vertex="1" parent="1">
          <mxGeometry x="220" y="340" width="60" height="70" as="geometry" />
        </mxCell>
        <mxCell id="gQC99idY5nHxFl9WnmBx-25" value="" style="rounded=1;whiteSpace=wrap;html=1;fontSize=14;" vertex="1" parent="1">
          <mxGeometry x="280" y="345" width="335" height="60" as="geometry" />
        </mxCell>
        <mxCell id="gQC99idY5nHxFl9WnmBx-26" value="&lt;font style=&quot;font-size: 12px;&quot;&gt;ec = p/tcrm&lt;/font&gt;" style="rounded=0;whiteSpace=wrap;html=1;fontSize=18;" vertex="1" parent="1">
          <mxGeometry x="1070" y="130" width="120" height="60" as="geometry" />
        </mxCell>
      </root>
    </mxGraphModel>
  </diagram>
</mxfile>
